<?xml version="1.0" encoding="utf-8"?>
<!-- Generator: Adobe Illustrator 22.1.0, SVG Export Plug-In . SVG Version: 6.00 Build 0)  -->
<svg version="1.1" id="bc406acc-02e1-4e02-a9b2-8c5d061b4f73"
	 xmlns="http://www.w3.org/2000/svg" xmlns:xlink="http://www.w3.org/1999/xlink" x="0px" y="0px" viewBox="0 0 284.6 171"
	 style="enable-background:new 0 0 284.6 171;" xml:space="preserve">
<style type="text/css">
	.st0{fill:#DBE8FC;}
	.st1{fill:#FFFFFF;}
	.st2{fill:#0D47A1;}
	.st3{fill:none;}
	.st4{fill:none;stroke:#0D47A1;stroke-width:2;stroke-miterlimit:10;}
</style>
<title>index-icon</title>
<circle class="st0" cx="48.1" cy="42.8" r="31.8"/>
<path class="st1" d="M42.4,41.7v-8.8l0.8-1.3l7.8,0.3c0,0,3.4,1,4,2.6s0.9,4.3,0,5.4c-0.6,0.7-1.3,1.4-2.1,1.9c0,0,2.8,0.5,3.5,2.5
	s1.1,4.4,0.3,5.9s-1.6,2.7-2.9,3c-1.5,0.3-3,0.5-4.5,0.7l-6.7-0.2L42.2,53L42.4,41.7z"/>
<path class="st2" d="M71.3,20C58.7,7.4,38.2,7.4,25.5,20s-12.6,33.1,0,45.7s33.1,12.6,45.7,0c6.1-6.1,9.5-14.3,9.5-22.9
	C80.8,34.3,77.4,26.1,71.3,20z M69.9,64.4c-11.9,11.9-31.2,11.9-43.1,0s-11.9-31.2,0-43.1s31.2-11.9,43.1,0
	c5.7,5.7,8.9,13.5,8.9,21.5C78.9,50.9,75.7,58.7,69.9,64.4z"/>
<path class="st2" d="M48.4,14.6c-15.6,0-28.3,12.7-28.3,28.3l0,0c0,0.5,0.4,0.9,1,0.9c0.5,0,0.9-0.4,0.9-0.9
	c0-14.6,11.8-26.4,26.4-26.4c0.5,0,1-0.4,1-0.9S48.9,14.6,48.4,14.6L48.4,14.6z"/>
<path class="st2" d="M75.8,41.9c-0.5,0-0.9,0.4-0.9,1c0,14.6-11.8,26.4-26.4,26.4c-0.5,0-1,0.4-1,1c0,0.5,0.4,0.9,1,0.9
	c15.6,0,28.3-12.7,28.3-28.3l0,0C76.7,42.3,76.3,41.9,75.8,41.9z"/>
<path class="st2" d="M64,24.3c-10.2-8.6-25.5-7.3-34.2,2.9c-7.6,9-7.6,22.2,0,31.2c0.3,0.4,0.9,0.5,1.3,0.2s0.5-0.9,0.2-1.3
	l-0.1-0.1c-7.9-9.5-6.7-23.6,2.8-31.5c8.3-7,20.4-7,28.7,0c0.4,0.4,1,0.4,1.3,0c0.4-0.4,0.4-1,0-1.3C64.1,24.3,64,24.3,64,24.3z"/>
<path class="st2" d="M67,27.3c-0.3-0.4-0.9-0.5-1.3-0.2s-0.5,0.9-0.2,1.3l0.1,0.1c8.1,9.3,7.2,23.4-2,31.5c-8.4,7.4-21.1,7.4-29.5,0
	c-0.4-0.4-1-0.4-1.3,0s-0.4,1,0,1.3l0.1,0.1c4.4,3.7,9.9,5.7,15.6,5.6h1c13.4-0.5,23.8-11.8,23.3-25.2C72.5,36.5,70.5,31.4,67,27.3z
	"/>
<path class="st2" d="M54.2,41.5c2.6-2.1,3-5.8,0.9-8.4c-1.1-1.4-2.9-2.3-4.7-2.3h-0.1v-2.1c0-0.5-0.4-1-1-1s-1,0.4-1,1v2.1h-2.2
	v-2.1c0-0.5-0.4-1-1-1s-1,0.4-1,1v2.1H40c-0.5,0-1,0.4-1,1c0,0.5,0.4,1,1,1h1.1V53H40c-0.5,0-1,0.4-1,1s0.4,1,1,1h4.1v2
	c0,0.5,0.4,1,1,1s1-0.4,1-1l0,0v-2h2.2v2c0,0.5,0.4,1,1,1s1-0.4,1-1l0,0v-2h1.1c3.9,0.1,7.1-3,7.1-6.9
	C58.7,45.2,56.9,42.6,54.2,41.5L54.2,41.5z M43.3,32.7h7.2c2.3-0.1,4.2,1.6,4.3,3.9c0.1,2.3-1.6,4.2-3.9,4.3c-0.1,0-0.3,0-0.4,0
	h-7.2C43.3,40.9,43.3,32.7,43.3,32.7z M51.4,53h-8.2V42.8h8.2c2.8,0,5.1,2.3,5.1,5.1S54.3,53.1,51.4,53z"/>
<circle class="st0" cx="157.4" cy="57" r="16.5"/>
<circle class="st0" cx="126.9" cy="28" r="16.5"/>
<polygon class="st1" points="155.3,57.4 154.9,64.1 159.4,64.1 160.6,61.3 160,58 159.6,57.3 161.1,55.6 160.9,53.3 158.5,52.5 
	156.2,52.3 155.4,52.3 154.7,55.4 "/>
<path class="st2" d="M139.8,69.6L139.8,69.6L139.8,69.6c0-0.2,0-0.2-0.1-0.3l0,0v-0.1l0,0v-0.1l0,0l-0.1-0.1l0,0l-0.1-0.1l0,0
	l-4.6-3.7c-0.4-0.3-1-0.3-1.3,0.1s-0.3,1,0.1,1.3l2.2,1.8c-5.5-0.5-10.8-2.8-14.8-6.6c-4.4-4.3-6.9-10.2-6.8-16.3
	c0-0.5-0.4-0.9-0.9-0.9s-0.9,0.4-0.9,0.9c0,6.6,2.6,13,7.4,17.7c4.4,4.1,10,6.7,16,7.2l-2.2,1.4c-0.5,0.2-0.6,0.8-0.4,1.3
	c0.2,0.5,0.8,0.6,1.3,0.4l0.1-0.1l4.6-3l0,0l0.1-0.1l0,0l0.1-0.1l0,0v-0.1l0,0V70l0,0c0-0.1,0.1-0.1,0.1-0.2l0,0v-0.1l0,0
	c0,0,0,0,0-0.1l0,0l0,0l0,0L139.8,69.6z"/>
<path class="st2" d="M164.6,22.7c-4.4-4.1-10-6.7-16-7.2l2.2-1.4c0.4-0.3,0.5-0.9,0.2-1.3c-0.3-0.4-0.8-0.5-1.2-0.3l-4.6,3l0,0
	l-0.1,0.1l0,0l-0.1,0.1l0,0v0.1l0,0v0.1l0,0c0,0.1-0.1,0.1-0.1,0.2l0,0v0.1l0,0c0,0,0,0,0,0.1l0,0l0,0l0,0l0,0l0,0c0,0,0,0,0,0.1
	l0,0c0,0.1,0,0.1,0.1,0.2l0,0v0.1l0,0v0.1l0,0v0.4l0,0l0.1,0.1l0,0l4.4,3.5c0.4,0.3,1,0.3,1.3-0.1s0.3-1-0.1-1.3l-2.2-1.7
	c5.5,0.5,10.8,2.8,14.8,6.6c4.4,4.3,6.9,10.2,6.8,16.3c0,0.5,0.4,0.9,0.9,0.9s0.9-0.4,0.9-0.9C172,33.7,169.3,27.4,164.6,22.7
	L164.6,22.7z"/>
<path class="st2" d="M127.5,10.5c-9.6,0-17.4,7.8-17.4,17.5s7.8,17.4,17.5,17.4c9.6,0,17.4-7.8,17.4-17.4S137.1,10.5,127.5,10.5
	L127.5,10.5z M127.5,43.5c-8.6,0-15.6-7-15.6-15.6s7-15.6,15.6-15.6s15.6,7,15.6,15.6V28C143,36.6,136.1,43.5,127.5,43.5L127.5,43.5
	z"/>
<path class="st2" d="M140.8,29.6c-0.5-0.1-1,0.2-1.1,0.7c-1.3,6.7-7.9,11.1-14.6,9.8c-4.9-1-8.8-4.8-9.8-9.8
	c-0.1-0.5-0.6-0.8-1.1-0.7s-0.8,0.6-0.7,1.1l0,0c1.6,7.7,9.1,12.7,16.8,11.2c5.6-1.1,10.1-5.5,11.2-11.2
	C141.6,30.2,141.3,29.7,140.8,29.6L140.8,29.6z"/>
<path class="st2" d="M141.3,24.4c-2-7.6-9.7-12.2-17.4-10.3c-5,1.3-9,5.2-10.3,10.3c-0.1,0.5,0.2,1,0.7,1.1s1-0.2,1.1-0.7l0,0
	c1.8-6.6,8.6-10.6,15.2-8.8c4.3,1.1,7.7,4.5,8.8,8.8c0.1,0.4,0.5,0.7,0.9,0.7h0.2C141.1,25.4,141.4,24.9,141.3,24.4L141.3,24.4z"/>
<path class="st2" d="M157,40c-9.6,0-17.5,7.8-17.5,17.5S147.3,75,157,75c9.6,0,17.4-7.8,17.4-17.5l0,0C174.4,47.8,166.6,40,157,40z
	 M157,73c-8.6,0-15.6-7-15.6-15.6s7-15.6,15.6-15.6s15.6,7,15.6,15.6S165.6,73,157,73z"/>
<path class="st2" d="M170.9,54.1c-1.8-7.7-9.5-12.4-17.2-10.6c-5.2,1.2-9.3,5.3-10.5,10.5c-0.1,0.5,0.2,1,0.7,1.1s1-0.2,1.1-0.7
	c1.6-6.7,8.4-10.7,15-9.1c4.5,1.1,8,4.6,9.1,9.1c0.1,0.4,0.5,0.7,0.9,0.7h0.2C170.7,55.1,171,54.6,170.9,54.1L170.9,54.1z"/>
<path class="st2" d="M170.2,59.2c-0.5-0.1-1,0.2-1.1,0.7c-1.4,6.7-8,11-14.7,9.6c-4.8-1-8.6-4.8-9.6-9.6c-0.1-0.5-0.6-0.8-1.1-0.7
	s-0.8,0.6-0.7,1.1c1.6,7.7,9.1,12.7,16.8,11.2c5.6-1.1,10-5.6,11.2-11.2C171.1,59.8,170.8,59.3,170.2,59.2L170.2,59.2z"/>
<path class="st2" d="M160.3,57.6c1.1-0.6,1.8-1.8,1.6-3.1c0.2-1.5-0.8-2.9-2.3-3.1l0,0v-0.9c0-0.5-0.4-0.9-0.9-0.9s-0.9,0.4-0.9,0.9
	v0.7h-1v-0.7c0-0.5-0.4-0.9-0.9-0.9S155,50,155,50.5v0.7h-1.3c-0.5,0-0.9,0.4-0.9,0.9s0.4,0.9,0.9,0.9v10.1c-0.5,0-0.9,0.4-0.9,0.9
	s0.4,0.9,0.9,0.9h1.3v0.8c0,0.5,0.4,0.9,0.9,0.9s0.9-0.4,0.9-0.9l0,0v-0.8h1v0.8c0,0.5,0.4,0.9,0.9,0.9s0.9-0.4,0.9-0.9l0,0V65h-0.1
	c1.6-0.3,2.7-1.5,2.7-3.9v-0.4C162.2,58.8,161.5,58.1,160.3,57.6L160.3,57.6z M155.8,53h2.2c1.2,0,1.9,0.5,1.9,1.8
	c0.2,0.9-0.5,1.8-1.4,2c-0.2,0-0.4,0-0.6,0h-2.3L155.8,53z M160.3,60.9c0,1.6-0.8,2.3-2.1,2.3h-2.4v-4.9h2.4c1.3,0,2.1,0.6,2.1,2.3
	V60.9z"/>
<polygon class="st0" points="206.9,19 231.4,11 256.3,17.8 258,20.4 258,43.7 254.3,55.4 247,65.9 237,73.7 231.3,75.7 221.2,69.4 
	211.6,58.9 207.2,46.3 206.9,24 206.9,19.4 "/>
<rect x="221.7" y="48.8" class="st0" width="21.3" height="3.3"/>
<path class="st2" d="M256.8,16.8l-22-6.5c-1.6-0.5-3.3-0.5-4.9,0l-22,6.5c-1.4,0.4-2.4,1.7-2.4,3.2v18.2c0,16.8,10,31.7,25.5,38
	c0.4,0.2,0.8,0.2,1.3,0.2l0,0l0,0c0.4,0,0.8-0.1,1.2-0.2C249,69.9,259,55,259,38.2V20C259.1,18.5,258.2,17.2,256.8,16.8z
	 M232.9,74.3c-0.3,0.1-0.7,0.1-1,0c-14.7-6-24.3-20.1-24.2-36.1V20c0-0.6,0.4-1.1,0.9-1.2l21.9-6.5c0.6-0.2,1.2-0.3,1.9-0.3l0,0h0.1
	c0.6,0,1.2,0.1,1.7,0.2l21.9,6.5c0.5,0.2,0.9,0.7,0.9,1.2v18.2C257.1,54.1,247.6,68.3,232.9,74.3z"/>
<rect x="207.7" y="12.9" class="st3" width="49.3" height="60.8"/>
<path class="st2" d="M251.9,20.7L233,15.1c-0.4-0.1-0.8-0.1-1.1,0l-19,5.6c-0.8,0.3-1.3,1.1-1.3,1.9v14.9c0,7.7,2.3,15.1,6.7,21.4
	c3.4,4.9,8,8.9,13.2,11.6c0.3,0.1,0.6,0.2,0.9,0.2l0,0c0.3,0,0.6-0.1,0.9-0.2c5.3-2.8,9.9-6.8,13.3-11.6c4.4-6.3,6.8-13.7,6.8-21.4
	V22.6C253.3,21.7,252.8,20.9,251.9,20.7z M251.1,22.8v14.7c0,7.2-2.2,14.2-6.3,20.1c-3.1,4.4-7.3,8.1-12,10.7l-0.3,0.2l-0.3-0.2
	c-4.8-2.6-8.9-6.3-12-10.7c-4.2-5.9-6.4-12.9-6.3-20.1V22.8l18.7-5.5L251.1,22.8z"/>
<rect x="222.4" y="36.5" class="st1" width="20.3" height="15.3"/>
<path class="st2" d="M238.5,35.3v-5.2c-0.1-1.7-0.9-3.3-2.3-4.4c-1.3-1.1-3-1.7-4.7-1.5c-3.2,0.3-5.6,2.7-5.9,5.9v5.1h-4.4v17.2
	h22.1V35.3H238.5z M227.4,35.3v-5.1c0.1-1.3,0.7-2.4,1.6-3.2c1-0.8,2.2-1.2,3.4-1.1c2.3,0.2,4.2,2,4.3,4.3v5.1
	C236.7,35.3,227.4,35.3,227.4,35.3z M241.6,49.6v1.2H223v-1.2H241.6z M223,47.8V37h18.6v10.9L223,47.8z"/>
<path class="st2" d="M232.3,39.1c-1.3,0-2.3,1-2.3,2.3v2.9c-0.1,0.6,0.1,1.2,0.5,1.7s1,0.7,1.6,0.8c0.1,0,0.1,0,0.2,0
	c0.6,0,1.1-0.2,1.5-0.5c0.5-0.4,0.7-1,0.8-1.6v-3.2C234.7,40.2,233.6,39.1,232.3,39.1z M232.9,44.4c0,0.1-0.2,0.3-0.3,0.4
	c-0.1,0-0.2,0.1-0.4,0c-0.1,0-0.3-0.1-0.4-0.4v-2.9c0-0.2,0-0.3,0.1-0.5c0-0.1,0.2-0.2,0.3-0.3c0.3-0.1,0.7,0.1,0.8,0.3v3.4H232.9z"
	/>
<path class="st0" d="M56,147.4l26.9-25.9c0,0,1-4.9-2.4-6.1s-4.1-1.4-5.5,0l-25.2,25.4l-3.3,9.4L56,147.4z"/>
<path class="st2" d="M68.2,103.4h-9.4v1.9h9.4c0.7,0,1.3,0.6,1.3,1.3c0,0.2,0,0.4-0.1,0.6l1.7,0.9c0.8-1.6,0.2-3.5-1.4-4.3
	C69.2,103.5,68.7,103.4,68.2,103.4L68.2,103.4z"/>
<rect x="53.6" y="103.4" class="st2" width="2.4" height="1.9"/>
<rect x="29.6" y="120.5" class="st2" width="33.8" height="1.9"/>
<rect x="29.6" y="155.4" class="st2" width="33.8" height="1.9"/>
<path class="st2" d="M74.6,121.2l-1.3,1.3l1.2,1.2l-3.9,3.9L72,129l5.3-5.3L74.6,121.2z"/>
<path class="st2" d="M68,130.1l1.3-1.3l1.3,1.4l-1.3,1.3L68,130.1z"/>
<path class="st2" d="M82.5,115.6l-0.7-0.7c-2.1-2.1-5.4-2.1-7.4,0l-5.6,5.6v-7.3c3.6-0.2,6.4-3.2,6.2-6.8s-3.2-6.4-6.8-6.2h-44
	c-3.6,0-6.5,2.9-6.5,6.5v51.7h5.5v6.7h45.5v-28.3L82.5,123C84.5,120.9,84.5,117.6,82.5,115.6L82.5,115.6z M28.8,102.1h39.4
	c2.5,0,4.6,2.1,4.6,4.6s-2.1,4.6-4.6,4.6H28.8C31.3,108.7,31.3,104.6,28.8,102.1z M23.3,111.2v45.2h-3.6v-49.8
	c0-2.5,2.1-4.6,4.6-4.6s4.6,2.1,4.6,4.6s-2.1,4.6-4.6,4.6C24.3,111.2,23.3,111.2,23.3,111.2z M66.8,163.1H25.2v-49.9h41.7v9.2
	l-4.2,4.2H29.6v1.9h31.2l-4,4H29.6v1.9h25.3l-4,4H29.6v1.9H49l-0.3,0.3l-1.1,3.7h-18v1.9H47l-1.2,4H29.6v1.9h33.8v-1.9H52l4.8-1.4
	l2.6-2.6h4v-1.9h-2.1l5.6-5.6L66.8,163.1z M49.9,142.9l4.5,4.5l-6.5,1.9L49.9,142.9z M56.3,146.5l-5.5-5.5l22.8-22.8l5.5,5.5
	L56.3,146.5z M81.1,121.7l-0.7,0.7l-5.4-5.5l0.7-0.7c1.3-1.3,3.4-1.3,4.8,0l0.7,0.7C82.5,118.2,82.5,120.3,81.1,121.7L81.1,121.7z"
	/>
<polygon class="st0" points="154,132.1 154,146.6 178.9,147 181.2,145.3 181.2,133.6 180.3,132.1 168.3,131.3 155,131.3 "/>
<circle class="st1" cx="163.1" cy="139.2" r="4"/>
<polygon class="st0" points="122.2,117.7 162,97.7 173.4,118.5 166.1,118.8 163.1,111.9 162.1,110.3 160.1,110.4 158,109.5 
	155.3,107.2 131.7,118.8 120.3,118.8 "/>
<path class="st2" d="M121.3,161.1c-3,0-5.5-2.5-5.5-5.5v-41.1c0.1-3,2.5-5.3,5.5-5.3h16l24.6-12.5c0.1-0.1,0.3-0.1,0.4-0.1
	c0.3,0,0.7,0.2,0.8,0.5l6.1,12.1h8.3c0.5,0,0.9,0.4,0.9,0.9l0,0v20.6h0.6c1.8,0,3.2,1.4,3.2,3.2l0,0v10.9c0,1.8-1.4,3.2-3.2,3.2
	h-0.6v0.6v11.6c0,0.5-0.4,0.9-0.9,0.9l0,0H121.3z M117.6,155.6c0,2,1.7,3.7,3.7,3.7h55.3V148h-22.4c-0.5,0-0.9-0.4-0.9-0.9l0,0
	v-15.5c0-0.5,0.4-0.9,0.9-0.9l0,0h22.4v-4.5h-47.1c-0.5,0-0.9-0.4-0.9-0.9s0.4-0.9,0.9-0.9h47.1v-4.5H121h-0.4h-0.3
	c-0.6-0.1-1.2-0.3-1.8-0.7l-0.9-0.5v33.9h46.7c0.5,0,0.9,0.4,0.9,0.9s-0.4,0.9-0.9,0.9h-46.7C117.6,154.4,117.6,155.6,117.6,155.6z
	 M155.1,146.1h24c0.8,0,1.4-0.6,1.4-1.4v-10.9c0-0.8-0.6-1.4-1.4-1.4h-24V146.1z M173.7,118h2.9v-7h-6.5L173.7,118z M162.4,109.3
	c0.3,0,0.7,0.2,0.8,0.5l3.9,7.7v0.1l0.1,0.4h4.3l-9.8-19.3L126,116.9l0.3,1.1h5.9l23-11.7c0.4-0.2,0.9-0.1,1.2,0.3l0.3,0.5
	c0.9,1.5,2.5,2.4,4.2,2.4c0.3,0,0.6,0,0.9-0.1l0.5-0.1L162.4,109.3z M138.4,116.9l0.3,1.1h26.7l-3.4-6.7h-0.4c-0.2,0-0.4,0-0.6,0
	c-2.1,0-4.1-1-5.4-2.6l-0.3-0.4L138.4,116.9z M121.3,111c-2,0-3.6,1.5-3.7,3.5c0,0.2,0,0.2,0,0.3l0.1,0.3c0,0.1,0,0.2,0.1,0.2
	c0.3,1.1,1.1,2,2.1,2.4l0.3,0.1l11.3-5.7l-0.3-1.1L121.3,111z"/>
<path class="st2" d="M163.2,144.4c-2.8,0-5.1-2.3-5.1-5.1s2.3-5.1,5.1-5.1s5.1,2.3,5.1,5.1l0,0C168.3,142.1,166,144.4,163.2,144.4z
	 M163.2,136c-1.8,0-3.3,1.5-3.3,3.3s1.5,3.3,3.3,3.3s3.3-1.5,3.3-3.3l0,0C166.5,137.5,165,136,163.2,136L163.2,136L163.2,136z"/>
<path class="st2" d="M168.8,154.3h-0.2l-0.2-0.1l-0.2-0.1l-0.1-0.1l-0.1-0.1c0-0.1-0.1-0.1-0.1-0.2c0-0.1,0-0.1-0.1-0.2
	c0-0.1,0-0.1,0-0.2c0-0.1,0-0.3,0.1-0.4c0-0.1,0.1-0.1,0.1-0.2l0.1-0.1l0.1-0.1l0.1-0.1l0.2-0.1h0.2c0.2,0,0.5,0.1,0.6,0.3l0.1,0.1
	c0.1,0.1,0.1,0.2,0.1,0.3s0,0.1,0,0.2c0,0.1,0,0.1,0,0.2c0,0.1,0,0.1-0.1,0.2c0,0.1,0,0.1-0.1,0.2l-0.1,0.1l-0.1,0.1l-0.1,0.1
	l-0.2,0.1V154.3z"/>
<path class="st2" d="M124.9,126.2h-0.2l-0.2-0.1l-0.2-0.1l-0.1-0.1l-0.1-0.1c0-0.1-0.1-0.1-0.1-0.2s0-0.1-0.1-0.2c0-0.1,0-0.1,0-0.2
	s0-0.1,0-0.2s0-0.1,0.1-0.2c0-0.1,0.1-0.1,0.1-0.2l0.1-0.1l0.1-0.1l0.2-0.1h0.2h0.2h0.2l0.2,0.1l0.2,0.1l0.1,0.1l0.1,0.1
	c0,0,0.1,0.1,0.1,0.2s0,0.1,0.1,0.2c0,0.1,0,0.1,0,0.2s0,0.1,0,0.2s0,0.1-0.1,0.2c0,0.1-0.1,0.1-0.1,0.2l-0.1,0.1l-0.1,0.1l-0.2,0.1
	l-0.2,0.1L124.9,126.2z"/>
<circle class="st0" cx="234.3" cy="119.1" r="20.1"/>
<path class="st1" d="M234.8,130.6c-4.7,0-8.4-3.8-8.4-8.4v-1.5h-1.5c-0.3,0-0.5-0.2-0.5-0.5s0.2-0.5,0.5-0.5h1.5v-1.5
	c0-4.7,3.8-8.4,8.4-8.4h4c0.3,0,0.5,0.2,0.5,0.5s-0.2,0.5-0.5,0.5h-4c-4.1,0-7.4,3.3-7.4,7.4v1.5h7.4c0.3,0,0.5,0.2,0.5,0.5
	s-0.2,0.5-0.5,0.5h-7.4v1.5c0,4.1,3.3,7.4,7.4,7.4h4c0.3,0,0.5,0.2,0.5,0.5s-0.2,0.5-0.5,0.5H234.8z"/>
<path class="st2" d="M238.6,128.1h-4c-3.9,0-7.1-3.2-7.1-7.1v-1.1h7.1c0.5,0,0.9-0.4,0.9-0.9s-0.4-0.9-0.9-0.9h-7.1V117
	c0-3.9,3.2-7.1,7.1-7.1h4c0.5,0,0.9-0.4,0.9-0.9s-0.4-0.9-0.9-0.9h-4c-4.9,0-8.8,4-8.8,8.8v1.1h-1.1c-0.5,0-0.9,0.4-0.9,0.9
	s0.4,0.9,0.9,0.9h1.1v1.1c0,4.9,4,8.8,8.8,8.8l0,0l4-0.1c0.5,0,0.9-0.4,0.9-0.9S239.1,128.1,238.6,128.1z"/>
<g>
	<path class="st2" d="M265.7,149.4c-0.6,0-1-0.4-1-1V136h-12.5c-0.6,0-1-0.4-1-1s0.4-1,1-1h14.5v14.4
		C266.7,149,266.3,149.4,265.7,149.4z"/>
</g>
<g>
	<path class="st2" d="M217.8,162.3c-0.3,0-0.5-0.1-0.7-0.3c-0.4-0.4-0.4-1,0-1.4l16.7-16.6l10.7,10.7l20.5-20.4c0.4-0.4,1-0.4,1.4,0
		s0.4,1,0,1.4l-21.9,21.8l-10.7-10.7L218.5,162C218.3,162.2,218.1,162.3,217.8,162.3z"/>
</g>
<circle class="st4" cx="234.1" cy="119.1" r="20.1"/>
<g>
	<polygon class="st2" points="127.3,18.8 121.2,28.4 127.3,25.8 	"/>
	<polygon class="st2" points="133.8,28.4 127.7,18.8 127.7,25.8 	"/>
	<polygon class="st2" points="121.2,29.7 127.3,37.9 127.3,33.2 	"/>
	<polygon class="st2" points="127.7,37.9 133.8,29.7 127.7,33.2 	"/>
	<polygon class="st2" points="127.3,26.2 121.2,28.8 127.3,32.3 	"/>
	<polygon class="st2" points="127.7,32.3 133.8,28.8 127.7,26.2 	"/>
</g>
</svg>
